<svg xmlns="http://www.w3.org/2000/svg" width="42" height="42"><g fill="none" fill-rule="evenodd"><path d="M0 0h42v42H0z"/><path fill="#1890FF" fill-rule="nonzero" d="M15.685 7.875a1.313 1.313 0 0 1 .153 2.616l-.153.009h-2.93l-2.313 8.261c-.154.5-.589.857-1.1.917l-.155.01c-.673 0-1.227.506-1.303 1.159L7.875 21v6.563c0 .673.507 1.227 1.16 1.303l.152.009h23.626c.673 0 1.227-.507 1.303-1.16l.009-.152V21c0-.673-.507-1.228-1.16-1.304l-.153-.009a1.313 1.313 0 0 1-1.209-.802l-.053-.15-2.336-8.235h-4.276a1.313 1.313 0 0 1-.154-2.616l.154-.009h5.25c.46 0 .866.238 1.1.597.056.078.105.165.143.258l.05.144 2.36 8.325.09.024a3.94 3.94 0 0 1 2.812 3.546l.007.231v6.563a3.938 3.938 0 0 1-3.706 3.93l-.231.007v2.625c0 .725-.588 1.313-1.313 1.313h-3.938a1.313 1.313 0 0 1-1.312-1.313v-2.626h-10.5v2.626c0 .725-.588 1.313-1.313 1.313H10.5a1.313 1.313 0 0 1-1.313-1.313V31.5a3.938 3.938 0 0 1-3.93-3.706l-.007-.232V21a3.94 3.94 0 0 1 2.82-3.777l.107-.028 2.318-8.354c.097-.313.3-.565.559-.726.175-.123.382-.205.605-.231l.153-.009h3.873zM13.125 31.5h-1.313v1.313h1.313V31.5zm17.063 0h-1.313v1.313h1.313V31.5zm-17.72-9.188a1.969 1.969 0 1 1 0 3.938 1.969 1.969 0 0 1 0-3.938zm17.063 0a1.969 1.969 0 1 1 0 3.938 1.969 1.969 0 0 1 0-3.938zm-.656-5.25a1.313 1.313 0 0 1 0 2.625h-15.75a1.313 1.313 0 0 1 0-2.625h15.75zM21 7.876a1.313 1.313 0 0 1 .153 2.616L21 10.5h-1.313a1.313 1.313 0 0 1-.153-2.616l.154-.009H21z"/></g></svg>